<svg id="Calque_1" data-name="Calque 1" xmlns="http://www.w3.org/2000/svg" viewBox="0 0 400.08 398.88"><defs><style>.cls-1{fill:#fdfdfd;}.cls-2{fill:#0000fe;}.cls-3{fill:#0000fd;}.cls-4{fill:#3f3ffe;}.cls-5{fill:#7f7ffe;}.cls-6{fill:#6363fe;}.cls-7{fill:#3232fe;}.cls-8{fill:#fefefe;}</style></defs><title>c_logo</title><path class="cls-1" d="M400.06,200q0,99.39,0,198.78c0,.85-.1,1.14-1.07,1.14q-199,0-397.94,0c-1,0-1.07-.29-1.07-1.14Q0,299.47,0,200.2c.47-.12.65.23.81.53,3,5.37,6.11,10.62,9,16-.09.12,0-.06,0,.1s0,.05,0-.08a6.54,6.54,0,0,1-.29-1,210.63,210.63,0,0,1,0-32.07,3.44,3.44,0,0,1,.33-.93c.05-.15,0-.21,0,0s-.14,0,0,.11-.2.14-.05.11C7,188.05,4,193.06,1.22,198.15c-.28.51-.42,1.23-1.2,1.33Q0,100.81,0,2.14C0,1.29.1,1,1.07,1Q200,1,399,1c1,0,1.07.29,1.07,1.14q0,98.67,0,197.34c-.47.12-.65-.24-.82-.54-3-5.34-6.08-10.59-8.95-16a4,4,0,0,0,.2,1.42,198.76,198.76,0,0,1-.15,32.46c0,.16.21,0,.05,0s-.09,0-.07-.1a14.33,14.33,0,0,1,1.77-3.49q3.48-6.23,7-12.41C399.33,200.5,399.44,200,400.06,200Z" transform="translate(0 -1)"/><path class="cls-2" d="M390.41,182.71q4.48,7.93,9,15.88c.18.32.21.78.68.89V200l-9.18,16.19c-.23.41-.47.81-.9,1.53.1-1.46.17-2.57.24-3.68a209.48,209.48,0,0,0,0-29.11c0-.24,0-.48,0-.72C390.19,183.67,389.8,183.11,390.41,182.71Z" transform="translate(0 -1)"/><path class="cls-2" d="M0,199.48c2.09-3.25,3.84-6.69,5.77-10,1.29-2.25,2.55-4.51,3.83-6.77.46,0,.34.26.28.52a240.12,240.12,0,0,0-.47,24.44c.08,2.87.31,5.74.47,8.61,0,.27.33.66-.26.72q-4.49-8-9-16c-.16-.28-.21-.68-.62-.77Z" transform="translate(0 -1)"/><path class="cls-3" d="M200,377.34q-37.54,0-75.11,0a5.88,5.88,0,0,1-2.64-.58A188.6,188.6,0,0,1,88.57,356a7.06,7.06,0,0,1-1.93-2.24q-35.49-63-71-126.09c-1.09-1.94-.94-4.1-1.17-6.18a199,199,0,0,1-1.13-24.53,211.65,211.65,0,0,1,1.6-23.06,5.44,5.44,0,0,1,.75-2q24.9-44.16,49.78-88.32l21.38-38a5.47,5.47,0,0,1,1.46-1.71,186.06,186.06,0,0,1,34.48-21.28,4.21,4.21,0,0,1,1.84-.4l150.82.07a4.65,4.65,0,0,1,2.07.47,186.77,186.77,0,0,1,34.06,21.05,6.43,6.43,0,0,1,1.7,2q22.17,39.44,44.38,78.86,13,23.06,26,46.06a15.16,15.16,0,0,1,1.7,6,209,209,0,0,1,1,33.75Q386,218.2,385,225.92a6,6,0,0,1-.87,2.19q-11.43,20.29-22.88,40.57-24,42.65-48.07,85.28a6.32,6.32,0,0,1-1.73,1.94,185.92,185.92,0,0,1-34.07,21,5.07,5.07,0,0,1-2.32.4Z" transform="translate(0 -1)"/><path class="cls-2" d="M286.13,22.26H299.4a1,1,0,0,1,1,.54q3.36,6,6.74,12a4.74,4.74,0,0,1,.18.74C300.33,30.65,293.35,26.33,286.13,22.26Z" transform="translate(0 -1)"/><path class="cls-2" d="M92.69,35.21l7-12.46a1,1,0,0,1,.94-.58c4.46,0,8.91,0,13.41.12A216.73,216.73,0,0,0,92.9,35.42Z" transform="translate(0 -1)"/><path class="cls-2" d="M92.51,364.17a237.77,237.77,0,0,0,21.37,12.91c0,.26-.13.25-.24.25-4.31,0-8.63,0-12.94,0a1.19,1.19,0,0,1-1.18-.76c-2-3.66-4.1-7.3-6.15-10.94C93.09,365.15,92.8,364.66,92.51,364.17Z" transform="translate(0 -1)"/><path class="cls-2" d="M307,364.87q-3.33,5.94-6.63,11.89a1,1,0,0,1-.93.59c-4.42,0-8.84,0-13.28,0,0-.45.35-.45.56-.56a209.65,209.65,0,0,0,20-12.23C306.92,364.5,307.07,364.58,307,364.87Z" transform="translate(0 -1)"/><path class="cls-4" d="M390.41,182.71c-.4.43,0,1-.22,1.46a1.87,1.87,0,0,1-.19-1.11c0-.28-.17-.6.08-.88A.63.63,0,0,1,390.41,182.71Z" transform="translate(0 -1)"/><path class="cls-5" d="M9.64,217c.34-.15.12-.5.26-.72a1.54,1.54,0,0,1,.15,1.26C9.75,217.43,9.69,217.2,9.64,217Z" transform="translate(0 -1)"/><path class="cls-6" d="M9.9,183.2c-.09-.17,0-.43-.28-.52a.63.63,0,0,1,.42-.57A1.23,1.23,0,0,1,9.9,183.2Z" transform="translate(0 -1)"/><path class="cls-7" d="M307,364.87l-.33-.32a1,1,0,0,1,.7-.46A.86.86,0,0,1,307,364.87Z" transform="translate(0 -1)"/><path class="cls-8" d="M200,77.05q45.69.54,79.64,31.14a121.13,121.13,0,0,1,28.87,39.62c.43.93.27,1.22-.63,1.64q-20.65,9.59-41.28,19.26c-.83.39-1.09.23-1.47-.57-9.08-18.93-23.27-32.46-43.4-38.69-26.4-8.19-50.16-2.59-70.54,16a70.06,70.06,0,0,0-22.44,43.14c-3.25,23.36,2.85,44.13,18.69,61.72A68.37,68.37,0,0,0,189,272.81c20.57,3.11,39.15-1.92,55.48-14.85a71.68,71.68,0,0,0,20.73-26.59c.34-.75.61-.86,1.38-.5q20.73,9.72,41.51,19.36c.91.42.8.8.47,1.51a122.42,122.42,0,0,1-22.27,33.16,117.83,117.83,0,0,1-58,34.17,114.52,114.52,0,0,1-40.19,2.84,116.19,116.19,0,0,1-70-32.6C99.64,271.58,88,250,82.78,224.93a119.5,119.5,0,0,1-2.49-23.55C80.08,172.25,88.65,146,106.61,123a117.53,117.53,0,0,1,64.93-42.49A113.7,113.7,0,0,1,200,77.05Z" transform="translate(0 -1)"/></svg>