<?xml version="1.0" encoding="utf-8"?>
<!-- Generator: Adobe Illustrator 24.0.0, SVG Export Plug-In . SVG Version: 6.00 Build 0)  -->
<svg version="1.1" id="Calque_1" xmlns="http://www.w3.org/2000/svg" xmlns:xlink="http://www.w3.org/1999/xlink" x="0px" y="0px"
	 viewBox="0 0 400.1 398.9" style="enable-background:new 0 0 400.1 398.9;" xml:space="preserve">
<style type="text/css">
	.st0{fill:#0000FE;}
	.st1{fill:#0000FD;}
	.st2{fill:#3F3FFE;}
	.st3{fill:#7F7FFE;}
	.st4{fill:#6363FE;}
	.st5{fill:#3232FE;}
	.st6{fill:#FEFEFE;}
</style>
<title>c_logo</title>
<path class="st0" d="M390.4,181.7c3,5.3,6,10.6,9,15.9c0.2,0.3,0.2,0.8,0.7,0.9v0.5l-9.2,16.2c-0.2,0.4-0.5,0.8-0.9,1.5
	c0.1-1.5,0.2-2.6,0.2-3.7c0.7-9.7,0.7-19.4,0-29.1c0-0.2,0-0.5,0-0.7C390.2,182.7,389.8,182.1,390.4,181.7z"/>
<path class="st0" d="M0,198.5c2.1-3.3,3.8-6.7,5.8-10c1.3-2.3,2.5-4.5,3.8-6.8c0.5,0,0.3,0.3,0.3,0.5c-0.6,8.1-0.7,16.3-0.5,24.4
	c0.1,2.9,0.3,5.7,0.5,8.6c0,0.3,0.3,0.7-0.3,0.7c-3-5.3-6-10.7-9-16c-0.2-0.3-0.2-0.7-0.6-0.8L0,198.5z"/>
<path class="st1" d="M200,376.3c-25,0-50.1,0-75.1,0c-0.9,0-1.8-0.2-2.6-0.6C110.3,370,99,363.1,88.6,355c-0.8-0.6-1.5-1.4-1.9-2.2
	c-23.7-42-47.3-84-71-126.1c-1.1-1.9-0.9-4.1-1.2-6.2c-0.9-8.1-1.3-16.3-1.1-24.5c0.1-7.7,0.6-15.4,1.6-23.1c0.1-0.7,0.4-1.4,0.8-2
	c16.6-29.4,33.2-58.9,49.8-88.3l21.4-38c0.4-0.7,0.9-1.2,1.5-1.7c10.7-8.3,22.2-15.5,34.5-21.3c0.6-0.3,1.2-0.4,1.8-0.4l150.8,0.1
	c0.7,0,1.4,0.2,2.1,0.5c12.1,5.8,23.5,12.8,34.1,21c0.7,0.5,1.3,1.2,1.7,2c14.8,26.3,29.6,52.6,44.4,78.9
	c8.7,15.4,17.3,30.7,26,46.1c1,1.9,1.6,3.9,1.7,6c1.2,11.2,1.6,22.5,1,33.8c-0.2,5.2-0.7,10.3-1.4,15.5c-0.1,0.8-0.4,1.5-0.9,2.2
	c-7.6,13.5-15.2,27-22.9,40.6c-16,28.4-32,56.9-48.1,85.3c-0.4,0.8-1,1.4-1.7,1.9c-10.6,8.2-22,15.2-34.1,21
	c-0.7,0.3-1.5,0.5-2.3,0.4L200,376.3z"/>
<path class="st0" d="M286.1,21.3h13.3c0.4,0,0.8,0.2,1,0.5c2.2,4,4.5,8,6.7,12c0.1,0.2,0.1,0.5,0.2,0.7
	C300.3,29.6,293.4,25.3,286.1,21.3z"/>
<path class="st0" d="M92.7,34.2l7-12.5c0.2-0.4,0.5-0.6,0.9-0.6c4.5,0,8.9,0,13.4,0.1c-7.3,4-14.4,8.4-21.1,13.1L92.7,34.2z"/>
<path class="st0" d="M92.5,363.2c6.9,4.7,14,9,21.4,12.9c0,0.3-0.1,0.3-0.2,0.3c-4.3,0-8.6,0-12.9,0c-0.5,0-1-0.3-1.2-0.8
	c-2-3.7-4.1-7.3-6.2-10.9C93.1,364.1,92.8,363.7,92.5,363.2z"/>
<path class="st0" d="M307,363.9c-2.2,4-4.4,7.9-6.6,11.9c-0.2,0.4-0.5,0.6-0.9,0.6c-4.4,0-8.8,0-13.3,0c0-0.5,0.4-0.5,0.6-0.6
	c6.9-3.7,13.6-7.8,20-12.2C306.9,363.5,307.1,363.6,307,363.9z"/>
<path class="st2" d="M390.4,181.7c-0.4,0.4,0,1-0.2,1.5c-0.2-0.3-0.2-0.7-0.2-1.1c0-0.3-0.2-0.6,0.1-0.9
	C390.3,181.3,390.4,181.5,390.4,181.7z"/>
<path class="st3" d="M9.6,216c0.3-0.1,0.1-0.5,0.3-0.7c0.2,0.4,0.3,0.8,0.1,1.3C9.8,216.4,9.7,216.2,9.6,216z"/>
<path class="st4" d="M9.9,182.2c-0.1-0.2,0-0.4-0.3-0.5c0-0.3,0.2-0.5,0.4-0.6C10.2,181.5,10.1,181.9,9.9,182.2z"/>
<path class="st5" d="M307,363.9l-0.3-0.3c0.2-0.2,0.4-0.4,0.7-0.5C307.4,363.4,307.3,363.7,307,363.9z"/>
<path class="st6" d="M200,76.1c30.5,0.4,57,10.7,79.6,31.1c12.2,11.1,22,24.6,28.9,39.6c0.4,0.9,0.3,1.2-0.6,1.6
	c-13.8,6.4-27.5,12.8-41.3,19.3c-0.8,0.4-1.1,0.2-1.5-0.6c-9.1-18.9-23.3-32.5-43.4-38.7c-26.4-8.2-50.2-2.6-70.5,16
	c-12.4,11.2-20.4,26.5-22.4,43.1c-3.3,23.4,2.9,44.1,18.7,61.7c10.7,12.2,25.5,20.2,41.6,22.5c20.6,3.1,39.1-1.9,55.5-14.9
	c8.9-7.1,16-16.2,20.7-26.6c0.3-0.8,0.6-0.9,1.4-0.5c13.8,6.5,27.7,12.9,41.5,19.4c0.9,0.4,0.8,0.8,0.5,1.5
	c-5.6,12.2-13.1,23.4-22.3,33.2c-15.6,16.8-35.8,28.7-58,34.2c-13.1,3.3-26.7,4.3-40.2,2.8c-26.4-2.6-51.1-14.1-70-32.6
	C99.6,270.6,88,249,82.8,223.9c-1.6-7.7-2.4-15.6-2.5-23.6c-0.2-29.1,8.4-55.4,26.3-78.4c16.2-21.1,39.1-36.1,64.9-42.5
	C180.8,77.2,190.4,76,200,76.1z"/>
</svg>
